<svg width="369" height="113" viewBox="0 0 369 113" fill="none" xmlns="http://www.w3.org/2000/svg">
<path fill-rule="evenodd" clip-rule="evenodd" d="M89.7722 71.8861C89.8952 71.0899 90.5248 70.4836 91.3996 70.4836C91.8074 70.4836 92.2697 70.6167 92.7569 70.921C119.787 87.8726 153.227 98.0851 187.759 98.0851C211.063 98.0851 236.666 92.8699 260.229 82.0963C263.781 80.4782 266.756 84.6171 263.282 87.3971C242.262 104.108 211.789 113 185.548 113C148.776 113 115.663 98.3451 90.5956 73.9555C90.1038 73.4776 89.8454 72.9539 89.7722 72.462V71.8861Z" fill="#00AAE1"/>
<path fill-rule="evenodd" clip-rule="evenodd" d="M245.943 74.5205C252.159 69.8275 260.422 68.2617 267.274 68.2617C273.683 68.2617 278.86 69.6338 279.962 71.1008C282.278 74.1618 279.366 95.3838 268.084 105.505C266.358 107.073 264.716 106.228 265.477 104.183C268.014 97.3949 273.69 82.1531 271 78.4578C268.313 74.754 253.228 76.6927 246.463 77.5667C245.415 77.6998 244.819 77.271 244.731 76.632V76.2872C244.802 75.7331 245.195 75.0864 245.943 74.5205V74.5205Z" fill="#00AAE1"/>
<path fill-rule="evenodd" clip-rule="evenodd" d="M350.906 53.4744C345.381 53.4744 341.063 51.7996 337.952 48.4499C334.841 45.1002 333.285 40.4274 333.285 34.4316C333.285 28.4817 334.841 23.8323 337.952 20.4834C341.063 17.1337 345.381 15.4588 350.906 15.4588C356.432 15.4588 360.75 17.1337 363.861 20.4834C366.971 23.8323 368.527 28.4817 368.527 34.4316C368.527 40.4274 366.971 45.1002 363.861 48.4499C360.75 51.7996 356.432 53.4744 350.906 53.4744ZM350.906 45.6037C355.781 45.6037 358.22 41.8797 358.22 34.4316C358.22 27.0295 355.781 23.3288 350.906 23.3288C346.031 23.3288 343.594 27.0295 343.594 34.4316C343.594 41.8797 346.031 45.6037 350.906 45.6037ZM312.496 37.6381C309.905 37.6381 307.653 37.3883 305.746 36.8832C306.016 39.9605 306.941 42.1677 308.509 43.4977C310.077 44.827 312.45 45.4948 315.632 45.4948C316.902 45.4948 318.143 45.4138 319.349 45.2512C320.55 45.094 322.222 44.7344 324.359 44.1881C324.491 44.1421 324.629 44.1071 324.767 44.0838C324.905 44.0604 325.014 44.0487 325.106 44.0487C325.882 44.0487 326.266 44.5772 326.266 45.6341V48.8056C326.266 49.5371 326.163 50.0539 325.962 50.3559C325.755 50.6516 325.359 50.9194 324.767 51.1458C321.446 52.4292 317.924 53.0736 314.197 53.0736C308.561 53.0736 304.235 51.5171 301.213 48.3869C298.191 45.2629 296.681 40.7854 296.681 34.9492C296.681 28.979 298.226 24.293 301.316 20.8951C304.407 17.4925 308.699 15.7912 314.197 15.7912C318.424 15.7912 321.733 16.8247 324.117 18.8918C326.502 20.9597 327.696 23.7179 327.696 27.1618C327.696 30.6111 326.41 33.2183 323.848 34.9842C321.28 36.7548 317.494 37.6381 312.496 37.6381V37.6381ZM313.449 22.7536C309.083 22.7536 306.562 25.4659 305.884 30.8842C307.699 31.2555 309.721 31.436 311.95 31.436C314.265 31.436 315.948 31.0811 316.994 30.3675C318.04 29.6585 318.563 28.5665 318.563 27.0979C318.563 24.1996 316.856 22.7536 313.449 22.7536V22.7536ZM269.462 53.1927C266.445 53.1927 263.821 52.4082 261.592 50.8392C259.363 49.2694 257.657 47.0918 256.473 44.304C255.289 41.517 254.697 38.2965 254.697 34.6425C254.697 28.8335 256.066 24.1841 258.806 20.6943C261.545 17.2037 265.168 15.4588 269.671 15.4588C273.339 15.4588 276.52 16.5126 279.213 18.621V2.17838C279.213 1.52229 279.352 1.06544 279.631 0.807835C279.91 0.550226 280.351 0.421809 280.954 0.421809H287.64C288.29 0.421809 288.743 0.550226 288.998 0.807835C289.254 1.06544 289.381 1.52229 289.381 2.17838V50.6633C289.381 51.2727 289.254 51.7171 288.998 51.9988C288.743 52.2798 288.29 52.4199 287.64 52.4199H282.069C281.511 52.4199 281.082 52.3031 280.78 52.0689C280.479 51.8346 280.257 51.4361 280.118 50.8742L279.7 49.2577C276.821 51.8813 273.409 53.1927 269.462 53.1927V53.1927ZM272.806 45.4637C275.034 45.4637 277.17 44.8076 279.213 43.4962V24.9452C277.217 23.7739 274.918 23.1887 272.318 23.1887C269.857 23.1887 268.023 24.114 266.816 25.964C265.609 27.8147 265.005 30.6134 265.005 34.3608C265.005 38.109 265.643 40.896 266.92 42.7233C268.197 44.55 270.159 45.4637 272.806 45.4637ZM239.585 52.4199C238.981 52.4199 238.54 52.2798 238.261 51.9988C237.982 51.7171 237.843 51.2727 237.843 50.6633V18.27C237.843 17.6139 237.982 17.157 238.261 16.8994C238.54 16.6418 238.981 16.5126 239.585 16.5126H246.271C246.921 16.5126 247.374 16.6418 247.629 16.8994C247.884 17.157 248.012 17.6139 248.012 18.27V50.6633C248.012 51.2727 247.884 51.7171 247.629 51.9988C247.374 52.2798 246.921 52.4199 246.271 52.4199H239.585ZM242.928 10.962C241.163 10.962 239.747 10.4701 238.679 9.48637C237.611 8.50263 237.077 7.16711 237.077 5.48059C237.077 3.79485 237.611 2.45933 238.679 1.4756C239.747 0.491857 241.163 -1.52588e-05 242.928 -1.52588e-05C244.692 -1.52588e-05 246.108 0.491857 247.176 1.4756C248.244 2.45933 248.778 3.79485 248.778 5.48059C248.778 7.16711 248.244 8.50263 247.176 9.48637C246.108 10.4701 244.692 10.962 242.928 10.962ZM211.955 52.4199C211.491 52.4199 211.108 52.3615 210.806 52.2448C210.505 52.1283 210.241 51.9341 210.04 51.6821C209.831 51.4244 209.634 51.0618 209.448 50.5933L197.538 19.3238C197.416 18.998 197.3 18.67 197.19 18.34C197.103 18.0914 197.056 17.8306 197.051 17.5672C197.051 16.8644 197.515 16.5126 198.444 16.5126H205.408C206.151 16.5126 206.696 16.6535 207.045 16.9345C207.393 17.2154 207.66 17.6839 207.846 18.34L215.019 43.2152L222.333 18.34C222.518 17.6839 222.785 17.2154 223.134 16.9345C223.482 16.6535 224.027 16.5126 224.77 16.5126H231.526C232.455 16.5126 232.919 16.8644 232.919 17.5672C232.919 17.8015 232.873 18.0591 232.78 18.34C232.687 18.621 232.571 18.9486 232.432 19.3238L220.522 50.5933C220.336 51.0618 220.139 51.4244 219.929 51.6821C219.737 51.9276 219.485 52.1211 219.199 52.2448C218.92 52.3615 218.525 52.4199 218.014 52.4199H211.955Z" fill="#232F3E"/>
<path fill-rule="evenodd" clip-rule="evenodd" d="M165.767 37.7509C163.109 37.7509 160.798 37.4956 158.842 36.9804C159.119 40.1207 160.068 42.3715 161.677 43.728C163.286 45.0854 165.72 45.7663 168.985 45.7663C170.288 45.7663 171.561 45.6831 172.799 45.5173C174.031 45.3578 175.745 44.9904 177.938 44.4332C178.074 44.3861 178.214 44.3504 178.356 44.3265C178.498 44.3032 178.61 44.2907 178.704 44.2907C179.5 44.2907 179.895 44.8301 179.895 45.9088V49.1433C179.895 49.8896 179.788 50.4165 179.582 50.7247C179.37 51.0267 178.963 51.2999 178.356 51.5302C174.95 52.8401 171.337 53.4977 167.512 53.4977C161.73 53.4977 157.291 51.91 154.192 48.7168C151.091 45.529 149.541 40.9621 149.541 35.0075C149.541 28.9175 151.127 24.1365 154.297 20.6709C157.468 17.199 161.872 15.4634 167.512 15.4634C171.85 15.4634 175.245 16.518 177.691 18.6271C180.136 20.7363 181.363 23.5505 181.363 27.0636C181.363 30.5822 180.042 33.2423 177.414 35.0433C174.779 36.8504 170.895 37.7509 165.767 37.7509V37.7509ZM166.745 22.5668C162.266 22.5668 159.678 25.3335 158.983 30.8608C160.846 31.2398 162.921 31.4235 165.207 31.4235C167.583 31.4235 169.31 31.0624 170.382 30.3332C171.455 29.6109 171.991 28.4972 171.991 26.9983C171.991 24.0416 170.24 22.5668 166.745 22.5668ZM98.4834 19.9658C100.953 18.3244 103.181 17.1632 105.161 16.4877C107.131 15.8076 109.201 15.4612 111.285 15.4627C115.482 15.4627 118.44 16.9678 120.167 19.9658C122.542 18.3719 124.782 17.2223 126.88 16.5235C128.975 15.818 131.171 15.4597 133.381 15.4627C136.646 15.4627 139.175 16.381 140.973 18.2061C142.764 20.0366 143.666 22.5901 143.666 25.8721V50.6889C143.666 51.2991 143.536 51.7435 143.283 52.0221C143.023 52.3062 142.57 52.4424 141.916 52.4424H135.202C134.595 52.4424 134.153 52.3062 133.876 52.0221C133.594 51.7435 133.452 51.2991 133.452 50.6889V28.1229C133.452 24.9358 132.032 23.3419 129.185 23.3419C126.668 23.3419 124.128 23.9466 121.564 25.167V50.6889C121.564 51.2991 121.434 51.7435 121.181 52.0221C120.922 52.3062 120.467 52.4424 119.814 52.4424H113.1C112.493 52.4424 112.051 52.3062 111.774 52.0221C111.492 51.7435 111.356 51.2991 111.356 50.6889V28.1229C111.356 24.9358 109.93 23.3419 107.089 23.3419C104.478 23.3419 101.914 23.97 99.3909 25.2378V50.6889C99.3909 51.2991 99.2617 51.7435 99.008 52.0221C98.7488 52.3062 98.2951 52.4424 97.6468 52.4424H90.9272C90.3263 52.4424 89.8781 52.3062 89.6018 52.0221C89.3247 51.7435 89.1831 51.2991 89.1831 50.6889V18.2769C89.1831 17.6193 89.3247 17.1632 89.6018 16.9087C89.8781 16.648 90.3263 16.5235 90.9272 16.5235H95.9665C97.0397 16.5235 97.688 17.0387 97.9239 18.0699L98.4834 19.9658ZM70.3114 18.2785C70.3114 17.6208 70.4531 17.1648 70.7301 16.9095C71.0134 16.6488 71.4555 16.5188 72.0625 16.5188H78.7752C79.4297 16.5188 79.8834 16.6488 80.1372 16.9095C80.3963 17.1648 80.5263 17.6208 80.5263 18.2785V50.6843C80.5263 51.2944 80.3963 51.7443 80.1372 52.0229C79.8834 52.3015 79.4297 52.4439 78.7752 52.4439H72.0625C71.4555 52.4439 71.0134 52.3015 70.7301 52.0229C70.4531 51.7443 70.3114 51.2944 70.3114 50.6843V18.2785ZM75.4161 10.9674C73.6417 10.9674 72.2213 10.4755 71.1489 9.49252C70.0764 8.50334 69.5456 7.17015 69.5456 5.48129C69.5456 3.79321 70.0764 2.46003 71.1489 1.47707C72.2213 0.49333 73.6417 0.00145721 75.4161 0.00145721C77.1898 0.00145721 78.6102 0.49333 79.6834 1.47707C80.7559 2.46003 81.2921 3.79321 81.2921 5.48129C81.2921 7.17015 80.7559 8.50334 79.6834 9.49252C78.6102 10.4755 77.1898 10.9674 75.4161 10.9674ZM52.015 21.8632C53.8774 19.8015 55.6394 18.3384 57.2956 17.4675C58.9233 16.6092 60.7368 16.1637 62.5769 16.1701H63.5552C64.209 16.1701 64.6752 16.3009 64.9522 16.5554C65.2347 16.8161 65.3702 17.2722 65.3702 17.9236V23.8307C65.3702 24.4408 65.2464 24.8852 64.9873 25.1693C64.7335 25.4479 64.2798 25.5896 63.626 25.5896C63.2961 25.5896 62.8773 25.5662 62.3645 25.5188C61.7136 25.4661 61.0608 25.4425 60.4079 25.4479C59.3346 25.4479 58.0326 25.602 56.4885 25.904C54.9498 26.2122 53.647 26.5967 52.5745 27.0652V50.685C52.5745 51.2952 52.4453 51.7396 52.1916 52.0244C51.9325 52.3023 51.4787 52.4447 50.8242 52.4447H44.1108C43.5037 52.4447 43.0617 52.3023 42.7846 52.0244C42.5021 51.7396 42.3604 51.2952 42.3604 50.685V18.2792C42.3604 17.6216 42.5021 17.1655 42.7846 16.9048C43.0617 16.6503 43.5037 16.5196 44.1108 16.5196H49.1447C50.2171 16.5196 50.8717 17.0356 51.1075 18.066L52.015 21.8632ZM0.4729 18.2761C0.4729 17.6247 0.614545 17.1686 0.897837 16.9079C1.1749 16.6472 1.61697 16.5227 2.22402 16.5227H7.26257C8.33582 16.5227 8.98412 17.0379 9.21994 18.0691L9.70869 19.8934C11.1057 18.5369 12.7977 17.4589 14.7776 16.6589C16.7583 15.865 18.7795 15.4681 20.831 15.4681C25.3512 15.4681 28.929 17.1328 31.5634 20.4569C34.1979 23.7863 35.5186 28.2824 35.5186 33.9584C35.5186 37.8443 34.8641 41.2446 33.5613 44.1475C32.253 47.0567 30.4793 49.2958 28.2449 50.8601C26.0058 52.4362 23.4414 53.2175 20.5477 53.2175C18.6378 53.2175 16.8167 52.9156 15.0959 52.3054C13.3689 51.6952 11.9011 50.8539 10.687 49.776V65.1672C10.687 65.8248 10.5578 66.2809 10.3041 66.5416C10.0449 66.7961 9.59117 66.9268 8.93664 66.9268H2.22402C1.61697 66.9268 1.1749 66.7961 0.897837 66.5416C0.614545 66.2809 0.4729 65.8248 0.4729 65.1672V18.2761ZM17.542 23.1995C15.1193 23.1995 12.8327 23.833 10.687 25.0954V43.5848C12.7385 44.8526 15.0251 45.4869 17.542 45.4869C20.1531 45.4869 22.0747 44.5982 23.3122 42.8151C24.5496 41.0313 25.1684 38.2233 25.1684 34.3786C25.1684 30.4865 24.5613 27.6543 23.3472 25.8713C22.1331 24.0883 20.1998 23.1995 17.542 23.1995V23.1995Z" fill="#00AAE1"/>
</svg>
